<svg xmlns="http://www.w3.org/2000/svg" viewBox="0 0 100 100">
  <defs>
    <linearGradient id="grass" x1="0%" y1="0%" x2="0%" y2="100%">
      <stop offset="0%" style="stop-color:#4CAF50;stop-opacity:1" />
      <stop offset="100%" style="stop-color:#2E7D32;stop-opacity:1" />
    </linearGradient>
    <linearGradient id="sky" x1="0%" y1="0%" x2="0%" y2="100%">
      <stop offset="0%" style="stop-color:#87CEEB;stop-opacity:1" />
      <stop offset="100%" style="stop-color:#4682B4;stop-opacity:1" />
    </linearGradient>
  </defs>
  
  <!-- Background -->
  <rect width="100" height="100" fill="url(#sky)"/>
  
  <!-- Grass -->
  <rect x="0" y="70" width="100" height="30" fill="url(#grass)"/>
  
  <!-- Golfer silhouette -->
  <g fill="#2C3E50">
    <!-- Head -->
    <circle cx="50" cy="25" r="8"/>
    
    <!-- Body -->
    <rect x="46" y="33" width="8" height="25" rx="4"/>
    
    <!-- Arms -->
    <rect x="35" y="35" width="15" height="4" rx="2" transform="rotate(-15 42.5 37)"/>
    <rect x="50" y="35" width="15" height="4" rx="2" transform="rotate(15 57.5 37)"/>
    
    <!-- Legs -->
    <rect x="44" y="58" width="4" height="12" rx="2"/>
    <rect x="52" y="58" width="4" height="12" rx="2"/>
    
    <!-- Golf club -->
    <rect x="25" y="30" width="20" height="3" rx="1.5" transform="rotate(-45 35 31.5)"/>
    <circle cx="20" cy="15" r="2" fill="#8B4513"/>
  </g>
  
  <!-- Golf ball -->
  <circle cx="75" cy="75" r="3" fill="white" stroke="#2C3E50" stroke-width="0.5"/>
  
  <!-- Sun -->
  <circle cx="80" cy="20" r="8" fill="#FFD700" opacity="0.8"/>
</svg> 